<svg width="382" height="790" viewBox="0 0 382 790" fill="none" xmlns="http://www.w3.org/2000/svg">
<rect x="1.60902" y="1.77979" width="378.179" height="786.179" rx="56.6868" fill="white" stroke="#AAAAAA" stroke-width="3.1787"/>
<path fill-rule="evenodd" clip-rule="evenodd" d="M121.267 66.9433C125.363 66.9433 128.684 63.6226 128.684 59.5263C128.684 55.4301 125.363 52.1094 121.267 52.1094C117.171 52.1094 113.85 55.4301 113.85 59.5263C113.85 63.6226 117.171 66.9433 121.267 66.9433Z" fill="#AAAAAA"/>
<rect x="149.875" y="56.3477" width="82.6461" height="6.35739" rx="3.1787" fill="#AAAAAA"/>
<path d="M219.277 738.689C219.277 754.197 206.706 766.768 191.198 766.768C175.691 766.768 163.12 754.197 163.12 738.689C163.12 723.182 175.691 710.611 191.198 710.611C206.706 710.611 219.277 723.182 219.277 738.689Z" fill="white" stroke="#AAAAAA" stroke-width="3.1787"/>
<rect width="341.094" height="590.159" transform="translate(20.1514 100.85)" fill="#EEEEEE"/>
</svg>
