<svg width="181" height="182" viewBox="0 0 181 182" fill="none" xmlns="http://www.w3.org/2000/svg">
<rect x="0.78833" y="0.917969" width="180.126" height="180.126" rx="36.0252" fill="#85BEFC"/>
<path d="M21.9796 36.9434C30.5623 36.9434 37.5199 43.901 37.5199 52.4836V114.645C28.9372 114.645 21.9796 107.687 21.9796 99.1045V36.9434Z" fill="#FCFCFC"/>
<path d="M21.9796 99.1035H99.681V114.644H37.5199C28.9372 114.644 21.9796 107.686 21.9796 99.1035Z" fill="#FCFCFC"/>
<path d="M84.1405 52.4836C84.1405 43.901 91.0981 36.9434 99.6808 36.9434V153.495H84.1405V52.4836Z" fill="#FCFCFC"/>
<path d="M84.4235 67.9872C84.4235 59.3961 91.3879 52.4316 99.979 52.4316H146.569C155.16 52.4316 162.125 59.3961 162.125 67.9872H84.4235Z" fill="#EEEEEE"/>
<path d="M146.584 52.4316C155.167 52.4316 162.125 59.3893 162.125 67.9719V130.209H146.584V52.4316Z" fill="#EEEEEE"/>
<rect x="99.9635" y="114.654" width="46.6208" height="15.5555" fill="#EEEEEE"/>
<path d="M146.584 130.209H162.125V138.002C162.125 146.585 155.167 153.542 146.584 153.542V130.209Z" fill="#EEEEEE"/>
<path d="M92.1932 153.544C92.1932 144.953 99.1577 137.988 107.749 137.988H162.124C162.124 146.579 155.16 153.544 146.569 153.544H92.1932Z" fill="#EEEEEE"/>
<path d="M84.4235 67.9883H99.9637V130.21C91.3811 130.21 84.4235 123.253 84.4235 114.67V67.9883Z" fill="#EEEEEE"/>
</svg>
